<svg width="30" height="31" viewBox="0 0 30 31" fill="none" xmlns="http://www.w3.org/2000/svg">
<g clip-path="url(#clip0_125_1885)">
<path d="M18.3041 15.5L29.5207 4.28293C29.8293 3.97415 29.9995 3.5622 30 3.12293C30 2.68342 29.8298 2.27098 29.5207 1.96268L28.5378 0.980001C28.2288 0.670489 27.8168 0.500977 27.3771 0.500977C26.938 0.500977 26.5261 0.670489 26.2171 0.980001L15.0005 12.1963L3.78341 0.980001C3.47488 0.670489 3.06268 0.500977 2.62317 0.500977C2.18415 0.500977 1.77195 0.670489 1.46341 0.980001L0.48 1.96268C-0.16 2.60268 -0.16 3.64366 0.48 4.28293L11.6968 15.5L0.48 26.7166C0.171219 27.0259 0.00121951 27.4378 0.00121951 27.8771C0.00121951 28.3163 0.171219 28.7283 0.48 29.0373L1.46317 30.02C1.77171 30.3293 2.18415 30.499 2.62293 30.499C3.06244 30.499 3.47463 30.3293 3.78317 30.02L15.0002 18.8034L26.2168 30.02C26.5259 30.3293 26.9378 30.499 27.3768 30.499H27.3773C27.8166 30.499 28.2285 30.3293 28.5376 30.02L29.5205 29.0373C29.829 28.7285 29.9993 28.3163 29.9993 27.8771C29.9993 27.4378 29.829 27.0259 29.5205 26.7168L18.3041 15.5Z" fill="#DADADA"/>
</g>
<defs>
<clipPath id="clip0_125_1885">
<rect width="30" height="30" fill="white" transform="translate(0 0.5)"/>
</clipPath>
</defs>
</svg>
