<svg width="126" height="42" viewBox="0 0 126 42" fill="none" xmlns="http://www.w3.org/2000/svg">
<g clip-path="url(#clip0_1_314)">
<path fill-rule="evenodd" clip-rule="evenodd" d="M107.502 4.59517C106.031 7.25251 105.011 7.5891 103.752 7.78397L103.245 7.83712L101.528 7.94342L99.5437 8.12943C98.8746 8.19623 98.2216 8.43089 97.6214 8.82034C98.3526 7.56533 99.2035 6.43446 100.153 5.45437C100.966 4.89332 101.866 4.57266 102.787 4.51545L103.191 4.45344H103.245L103.8 4.39144C105.613 4.24605 107.363 3.46868 108.863 2.14155C108.254 3.2665 107.495 4.57745 107.495 4.57745L107.502 4.59517ZM95.7053 11.398C95.7053 11.398 95.1442 12.39 95.0213 12.514C93.132 12.8725 91.2898 13.567 89.5475 14.5779C86.9002 16.2174 84.4311 18.3022 82.206 20.7784C84.3095 17.6469 86.7885 14.9732 89.5475 12.8595C91.826 11.1848 94.3094 10.0255 96.889 9.43156C96.6836 9.67957 95.678 11.4246 95.678 11.4246L95.7053 11.398ZM109.622 0.857178C107.7 3.34622 105.626 3.6651 103.752 3.97512L102.828 4.12571C101.833 4.14646 100.858 4.50373 100.002 5.16207C98.9168 6.18698 97.9615 7.42413 97.1695 8.82919C94.5087 9.42441 91.9427 10.5858 89.5748 12.266C85.8252 15.0031 83.2456 18.6259 81.3227 21.3098L79.4482 24.1709L79.8039 24.0469C83.2251 19.866 86.4819 16.8721 89.5748 15.0651C91.3413 13.9531 93.2406 13.2372 95.192 12.9481H95.2473L97.2173 9.57321C97.9038 8.90893 98.7424 8.56269 99.5989 8.59002L101.576 8.40402L103.245 8.28001L103.8 8.21801C105.114 7.94342 106.229 7.5891 107.809 4.84319L109.862 1.1052L109.622 0.857178Z" fill="#2B2A29"/>
<path fill-rule="evenodd" clip-rule="evenodd" d="M79.4053 24.1637C85.3627 18.4756 88.5245 16.2635 95.5861 16.1318L94.0828 18.853C93.9754 19.1317 93.796 19.3527 93.5757 19.4777C93.356 19.6028 93.1089 19.624 92.878 19.5377C87.8206 19.4762 84.3138 19.9678 78.2068 25.7789L79.4053 24.1637Z" fill="url(#paint0_linear_1_314)"/>
<path fill-rule="evenodd" clip-rule="evenodd" d="M79.4482 23.3671C85.3373 16.4063 90.342 13.2624 94.6818 12.5894C95.0859 11.9606 96.4229 9.64928 96.8276 8.89648C87.0306 11.0397 82.5331 19.4262 79.4482 23.3671Z" fill="url(#paint1_linear_1_314)"/>
<path fill-rule="evenodd" clip-rule="evenodd" d="M79.444 23.3327C79.3701 23.4269 79.1758 23.7177 78.9952 23.94C78.935 24.0114 78.8785 24.0886 78.8276 24.1709C80.5438 22.4104 82.3668 20.8261 84.2792 19.4329C86.8122 17.7063 89.5774 16.6038 92.4294 16.183C92.7776 15.6955 93.8427 13.8739 94.3449 12.916C87.7482 14.1048 83.4083 18.8171 79.444 23.3327Z" fill="url(#paint2_linear_1_314)"/>
<path fill-rule="evenodd" clip-rule="evenodd" d="M94.1709 18.5436C94.2293 18.2345 94.3981 17.9943 93.6365 17.4535C92.6546 16.7925 92.3324 17.093 92.5447 16.4235C92.7135 15.8828 94.7419 14.9128 96.2068 15.5223C95.4775 16.4808 94.7972 17.4897 94.1709 18.5436Z" fill="url(#paint3_linear_1_314)"/>
<path fill-rule="evenodd" clip-rule="evenodd" d="M99.1222 8.15914C97.6859 8.33817 96.8231 8.81561 96.2571 9.65956L94.3447 12.9162C94.8003 12.4388 96.0498 12.1745 97.4308 12.1745H97.7896C97.99 12.1745 98.1973 12.1148 98.404 12.1148C100.393 12.0637 103.099 11.6971 104.735 9.35263L107.11 5.33731L107.379 4.87695C105.281 8.20176 100.599 7.89486 99.1222 8.15914Z" fill="url(#paint4_linear_1_314)"/>
<path fill-rule="evenodd" clip-rule="evenodd" d="M102.596 4.2025C101.989 4.32806 100.607 4.26528 99.4809 5.21597C98.2141 6.47653 97.1086 7.99013 96.2068 9.70032C96.8213 8.80346 97.7405 8.52538 98.9701 8.33707C100.199 8.14873 101.933 8.21151 103.211 7.95142C104.489 7.69132 105.566 7.44917 107.093 4.66888L109.241 0.857178C107.045 3.70025 104.641 3.82582 102.596 4.2025Z" fill="url(#paint5_linear_1_314)"/>
<path fill-rule="evenodd" clip-rule="evenodd" d="M100.377 11.4706C98.9112 11.7141 97.2477 11.7836 96.7499 11.8358C95.9387 11.8358 94.8276 12.2098 94.5278 12.7055C93.7874 13.7887 93.1046 14.9334 92.4827 16.1318C93.0419 15.4622 94.9096 15.523 97.1794 15.4013C98.3997 15.3224 99.5945 14.9225 100.688 14.2266C101.781 13.5307 102.749 12.5539 103.533 11.3575L104.896 8.89648C103.99 10.4183 102.347 11.1053 100.377 11.4706Z" fill="url(#paint6_linear_1_314)"/>
<path fill-rule="evenodd" clip-rule="evenodd" d="M6.56144 27.5928C6.52066 27.4841 6.49347 27.3669 6.45946 27.2498L1.62506 27.5928L2.60418 28.1786L6.56144 27.5928ZM7.2414 28.6472L7.119 28.5217C7.04377 28.4411 6.97544 28.3514 6.91498 28.2539L4.47402 28.8313L5.50753 29.2496L7.22098 28.6639L7.2414 28.6472ZM9.15201 28.4045L8.4721 26.731L7.96891 27.0071L7.65615 26.1704L8.72367 25.4842L8.97523 25.3419L9.58717 26.003L8.83924 26.4633L9.51921 28.1368C9.39203 28.2507 9.24561 28.3279 9.09081 28.3627L9.15201 28.4045ZM10.3487 24.8315C9.91428 24.2218 9.36255 23.7557 8.74403 23.476L8.47887 23.3672C8.56726 23.4258 8.65564 23.501 8.74403 23.568C9.45826 24.0763 10.0208 24.8537 10.3487 25.7855C10.4019 25.94 10.4451 26.0995 10.4779 26.2624H10.8791C10.7826 25.7368 10.587 25.2467 10.3079 24.8315H10.3487ZM10.3487 30.0111L10.4847 30.3207L10.3487 30.396L9.98833 30.5969L9.58041 29.5928C9.31115 29.7088 9.02917 29.7736 8.74403 29.7851C8.43269 29.8087 8.1203 29.7691 7.81932 29.668L7.47937 30.5969C7.3499 30.6166 7.21875 30.5843 7.10541 30.5048C7.07611 30.4856 7.05029 30.4594 7.02925 30.4278C7.00827 30.3962 6.9925 30.3598 6.98301 30.3207L7.10541 30.0613L7.40458 29.4003C7.3116 29.3376 7.22489 29.2618 7.14619 29.1743L7.39775 28.8062C7.80461 29.124 8.27578 29.295 8.75762 29.2999C9.23487 29.3096 9.70119 29.1242 10.0835 28.7727L10.3623 28.8731L10.4779 28.9233L10.3623 29.0405C10.2787 29.1517 10.1825 29.2476 10.0767 29.325L10.3623 30.0111H10.3487ZM16.1214 27.4255L10.8519 27.1075C10.7671 27.544 10.594 27.947 10.3487 28.279C10.1481 28.5557 9.90012 28.7742 9.62268 28.9189C9.34523 29.0636 9.04512 29.1308 8.74403 29.1158C8.44163 29.116 8.14215 29.0422 7.86315 28.8986C7.58415 28.7548 7.33115 28.5443 7.119 28.279C6.86352 27.9496 6.67887 27.5469 6.58186 27.1075L1.28509 27.4423L0 26.4297H6.9354C6.93261 26.7559 6.98835 27.0787 7.09858 27.3753C7.25338 27.7417 7.48657 28.0492 7.77296 28.2645C8.05935 28.4798 8.38806 28.5948 8.72367 28.5969C9.06337 28.621 9.40066 28.5137 9.68841 28.2902C9.9761 28.0666 10.1999 27.7379 10.3283 27.3502C10.4259 27.0586 10.4723 26.7449 10.4643 26.4297H17.3793L16.101 27.4255H16.1214ZM15.7746 27.5928L10.9743 27.2498C10.9743 27.3669 10.9199 27.4841 10.8858 27.5928L14.7955 28.1535L15.7746 27.5928ZM12.9189 28.8313L10.4983 28.2706C10.4371 28.3376 10.3895 28.4213 10.3215 28.4882C10.2838 28.5498 10.2404 28.606 10.1923 28.6555L10.3215 28.7057L11.8446 29.2747L12.9189 28.8313ZM13.4289 28.756L14.2788 28.2623L10.7567 27.7435C10.7129 27.8781 10.6508 28.0026 10.5731 28.1116L13.422 28.7476L13.4289 28.756ZM3.90966 28.756L3.05294 28.2957L6.58862 27.7686L6.78581 28.1201L3.94366 28.7476L3.90966 28.756Z" fill="#0A5095"/>
<path fill-rule="evenodd" clip-rule="evenodd" d="M37.0183 38.012C39.7827 38.5684 42.5719 38.8862 45.3679 38.9633C49.4378 39.0872 53.5085 38.763 57.5373 37.9942C61.2052 37.3353 64.8062 36.1426 68.2733 34.4379C69.8338 33.7304 71.2998 32.7076 72.6206 31.4062C71.2675 32.9066 69.7375 34.1077 68.0909 34.9625C64.4623 36.9986 60.67 38.4898 56.7868 39.4078C52.6622 40.4329 48.4768 40.9773 44.2794 41.0348C41.7626 41.1135 39.2449 40.9412 36.7479 40.5191C34.1284 40.1079 31.5866 39.081 29.2434 37.4874C27.6952 36.3316 27.1813 35.2826 27.3369 35.0781C27.4923 34.8736 28.2834 35.3271 29.8451 35.9671C32.1928 36.8896 34.5909 37.5732 37.0183 38.012Z" fill="#EE741D"/>
<path fill-rule="evenodd" clip-rule="evenodd" d="M19.2415 19.3475V17.8789H14.7739V15.1176H18.7934V13.6666H14.7739V11.1514H19.0107V9.70044H11.7932V19.3475H19.2415Z" fill="#0A5095"/>
<path fill-rule="evenodd" clip-rule="evenodd" d="M24.0747 19.3213V11.1738H25.8249C26.3387 11.1218 26.8525 11.2744 27.2968 11.6109C27.4583 11.7467 27.5912 11.9319 27.6835 12.1501C27.7759 12.3683 27.8248 12.6125 27.826 12.861C27.8297 13.1192 27.7785 13.3737 27.6781 13.5971C27.5777 13.8205 27.4318 14.0043 27.2562 14.1286C26.5583 14.5698 25.7738 14.7311 25.0041 14.5919L24.6377 14.5307L27.5953 19.3213H31.0346L28.2194 15.3262C28.8521 15.2347 29.465 14.9853 30.0238 14.5919C30.2858 14.381 30.5037 14.0907 30.6587 13.7464C30.8135 13.402 30.9007 13.014 30.9125 12.6162C30.8995 12.1568 30.793 11.7097 30.6037 11.3201C30.4144 10.9303 30.1489 10.6116 29.8339 10.3958C28.8178 9.83974 27.7117 9.61174 26.6117 9.73145H21.1035V19.3475L24.0747 19.3213Z" fill="#0A5095"/>
<path fill-rule="evenodd" clip-rule="evenodd" d="M47.716 19.3475V15.2759H51.8063V13.8249H47.716V11.1514H52.138V9.70044H44.6897V19.3475H47.716Z" fill="#0A5095"/>
<path fill-rule="evenodd" clip-rule="evenodd" d="M56.3943 9.70044H53.3794V19.3475H60.8277V17.8789H56.3943V9.70044Z" fill="#0A5095"/>
<path fill-rule="evenodd" clip-rule="evenodd" d="M73.2415 11.1514H76.4188V19.3475H79.3813V11.1514H82.5518V9.70044H73.2415V11.1514Z" fill="#0A5095"/>
<path fill-rule="evenodd" clip-rule="evenodd" d="M66.4168 18.0772C65.9904 18.1121 65.5633 18.0145 65.1704 17.7923C64.7775 17.5701 64.43 17.2295 64.1562 16.7981C63.7093 16.0308 63.4847 15.0796 63.5231 14.1147C63.4859 13.15 63.7106 12.1994 64.1562 11.4312C64.4269 10.9933 64.7732 10.6469 65.1667 10.4212C65.5596 10.1955 65.9885 10.0971 66.4168 10.1343C66.8475 10.0986 67.2777 10.1976 67.6731 10.4231C68.0684 10.6486 68.4173 10.9941 68.6916 11.4312C69.1323 12.2023 69.3539 13.1516 69.3179 14.1147C69.3551 15.078 69.1335 16.0277 68.6916 16.7981C68.416 17.232 68.0666 17.5742 67.6712 17.7964C67.2758 18.0188 66.8463 18.115 66.4168 18.0772ZM66.4168 8.89992C64.7707 8.8463 63.1482 9.42118 61.7457 10.5547C61.2901 10.9461 60.9127 11.4751 60.6449 12.0977C60.3771 12.7202 60.2269 13.418 60.2068 14.1326C60.2269 14.8472 60.3771 15.545 60.6449 16.1675C60.9127 16.79 61.2901 17.3191 61.7457 17.7105C63.1693 18.7831 64.7825 19.3474 66.4236 19.3474C68.0653 19.3474 69.6779 18.7831 71.1018 17.7105C71.5536 17.3162 71.9273 16.7857 72.1917 16.1634C72.4555 15.541 72.6026 14.8448 72.6206 14.1326C72.6026 13.4205 72.4555 12.7242 72.1917 12.1019C71.9273 11.4795 71.5536 10.949 71.1018 10.5547C69.6922 9.42906 68.0666 8.85506 66.4168 8.89992Z" fill="#0A5095"/>
<path fill-rule="evenodd" clip-rule="evenodd" d="M37.8588 18.0749C37.432 18.1098 37.0049 18.0122 36.6121 17.79C36.2193 17.5679 35.8719 17.2274 35.598 16.7961C35.1562 16.026 34.9344 15.0764 34.9715 14.1133C34.9356 13.1506 35.1572 12.2015 35.598 11.4307C35.8879 11.0217 36.2389 10.6956 36.629 10.4725C37.0192 10.2495 37.4401 10.1345 37.8656 10.1345C38.2911 10.1345 38.712 10.2495 39.1021 10.4725C39.4922 10.6956 39.8432 11.0217 40.1331 11.4307C40.579 12.1986 40.8033 13.149 40.7664 14.1133C40.8045 15.078 40.58 16.0289 40.1331 16.7961C39.8578 17.2299 39.5082 17.572 39.1129 17.7942C38.7176 18.0165 38.2878 18.1127 37.8588 18.0749ZM37.8588 8.89991C36.2126 8.84637 34.5899 9.42101 33.1874 10.5542C32.7331 10.9465 32.357 11.4759 32.0904 12.0982C31.8238 12.7205 31.6746 13.4177 31.6553 14.1313C31.6746 14.8448 31.8238 15.5419 32.0904 16.1642C32.357 16.7865 32.7331 17.316 33.1874 17.7082C34.595 18.8241 36.215 19.3916 37.8588 19.3448C39.5089 19.3908 41.1353 18.8235 42.5505 17.7082C43.0023 17.314 43.3758 16.7837 43.64 16.1615C43.9042 15.5393 44.0513 14.8432 44.0691 14.1313C44.0513 13.4193 43.9042 12.7232 43.64 12.101C43.3758 11.4788 43.0023 10.9485 42.5505 10.5542C41.1376 9.43002 39.5105 8.85626 37.8588 8.89991Z" fill="#0A5095"/>
<path fill-rule="evenodd" clip-rule="evenodd" d="M3.14557 15.2519L4.52217 11.893H4.56207L6.05837 15.2519H3.14557ZM1.4564 19.3475L2.6069 16.5499H6.65026L7.89387 19.3475H11.1724L6.73008 9.70044H4.03005L0 19.3475H1.4564Z" fill="#0A5095"/>
<path fill-rule="evenodd" clip-rule="evenodd" d="M31.0344 26.5828L30.3739 29.6004C30.2826 29.7208 30.1753 29.8198 30.0569 29.893C29.9039 30.0052 29.7316 30.0684 29.5549 30.0769C29.4863 30.0809 29.4179 30.0649 29.3549 30.0301C29.2919 29.9953 29.2361 29.9427 29.1917 29.8764C29.1613 29.7909 29.1455 29.6983 29.1455 29.6046C29.1455 29.511 29.1613 29.4184 29.1917 29.333L29.7729 26.5828H29.1785L28.6105 29.241C28.5649 29.3979 28.5455 29.5651 28.5535 29.732C28.5614 29.8989 28.5966 30.0618 28.6567 30.2107C28.7413 30.3487 28.8527 30.4567 28.98 30.5241C29.1073 30.5914 29.2462 30.616 29.3832 30.5952C29.5791 30.5919 29.7725 30.5379 29.9512 30.4364C30.0899 30.3278 30.2484 30.2107 30.3739 30.0936L30.2814 30.5116H30.8164L31.6552 26.5828H31.0344Z" fill="#0A5095"/>
<path fill-rule="evenodd" clip-rule="evenodd" d="M35.3793 27.1103C35.2819 26.9536 35.1527 26.8268 35.0029 26.7411C34.7982 26.6237 34.5706 26.57 34.3425 26.5853C34.0659 26.5715 33.792 26.6513 33.5542 26.815C33.2647 27.019 33.0518 27.3409 32.9576 27.7173C32.9141 27.8373 32.8958 27.9677 32.9045 28.0974C32.9131 28.2272 32.9484 28.3528 33.0074 28.4638C33.1408 28.6282 33.314 28.7425 33.5045 28.7918L33.8241 28.9149C33.9874 28.9559 34.1578 28.9559 34.2644 29.1035C34.2998 29.1562 34.3241 29.2179 34.3352 29.2834C34.3463 29.3489 34.344 29.4166 34.3283 29.4809C34.2821 29.6271 34.2008 29.7552 34.0939 29.85C33.92 30.0062 33.7032 30.0849 33.4832 30.0715C33.3123 30.073 33.1439 30.025 32.9931 29.932C32.8853 29.8426 32.7875 29.7378 32.702 29.6204L32.2759 30.0715C32.3989 30.2538 32.5597 30.3974 32.7433 30.4892C32.927 30.5809 33.1277 30.6178 33.327 30.5965C33.7522 30.609 34.1699 30.4654 34.52 30.1863C34.7386 29.9663 34.9028 29.6832 34.9958 29.3661C35.053 29.1495 35.053 28.9182 34.9958 28.7016C34.935 28.5917 34.856 28.4968 34.7634 28.4222C34.6708 28.3476 34.5664 28.2948 34.4561 28.2669L34.2147 28.1931C33.9164 28.111 33.7743 28.0782 33.7104 27.9798C33.6465 27.8813 33.5897 27.7993 33.6394 27.5696C33.6906 27.4242 33.7709 27.2949 33.8738 27.1923C34.0096 27.1018 34.1645 27.0564 34.3212 27.0611C34.4645 27.0566 34.6056 27.1024 34.726 27.1923C34.8209 27.2727 34.9067 27.3663 34.9817 27.4711L35.3793 27.1103Z" fill="#0A5095"/>
<path fill-rule="evenodd" clip-rule="evenodd" d="M38.4828 27.1104C38.3904 26.9484 38.2598 26.8204 38.1065 26.7413C37.9095 26.6237 37.6886 26.5698 37.4673 26.5854C37.186 26.5684 36.9067 26.6483 36.6648 26.8151C36.3785 27.0272 36.1631 27.3454 36.0541 27.7176C36.0201 27.8409 36.009 27.971 36.0212 28.0996C36.0334 28.2281 36.0688 28.3523 36.1251 28.4642C36.2604 28.6217 36.4295 28.7349 36.6151 28.7923L36.9204 28.9154C37.0878 28.9201 37.2495 28.9861 37.3821 29.1041C37.418 29.1566 37.4414 29.219 37.4502 29.2852C37.4589 29.3514 37.4526 29.419 37.4318 29.4815C37.3852 29.6232 37.3096 29.7499 37.2116 29.8507C37.0378 30.007 36.8209 30.0856 36.6009 30.0722C36.4235 30.071 36.2487 30.0233 36.0896 29.9327C35.9852 29.8412 35.89 29.7366 35.8055 29.6209L35.3794 30.0722C35.5063 30.2536 35.6698 30.3963 35.8555 30.4878C36.0412 30.5794 36.2435 30.6169 36.4446 30.5973C36.8678 30.611 37.2836 30.4671 37.6306 30.187C37.8553 29.9763 38.0168 29.6893 38.0922 29.3666C38.1601 29.1521 38.1601 28.9167 38.0922 28.702C38.0358 28.5879 37.9582 28.4896 37.8648 28.4144C37.7715 28.3392 37.6648 28.2889 37.5525 28.2673L37.3182 28.1934C37.027 28.1114 36.8921 28.0785 36.8211 27.9801C36.75 27.8816 36.7074 27.7996 36.7571 27.5699C36.8021 27.4207 36.8835 27.2896 36.9915 27.1925C37.12 27.1032 37.2677 27.0577 37.4176 27.0612C37.5678 27.0543 37.7164 27.1001 37.8437 27.1925C37.9382 27.2704 38.022 27.3645 38.0922 27.4715L38.4828 27.1104Z" fill="#0A5095"/>
<path fill-rule="evenodd" clip-rule="evenodd" d="M40.0616 25.4465C40.0434 25.5029 40.0378 25.5632 40.0455 25.6224C40.0532 25.6817 40.0738 25.7379 40.1057 25.7865C40.1375 25.8351 40.1797 25.8746 40.2285 25.9015C40.2772 25.9285 40.3313 25.9422 40.3859 25.9415C40.5145 25.9328 40.6375 25.8805 40.7375 25.7917C40.8376 25.703 40.9098 25.5823 40.9442 25.4465C40.9637 25.3915 40.97 25.332 40.9625 25.2736C40.9551 25.2151 40.9342 25.1598 40.9017 25.1126C40.8692 25.0656 40.8262 25.0283 40.777 25.0044C40.7276 24.9806 40.6735 24.9709 40.6198 24.9763C40.4949 24.9865 40.3756 25.0365 40.2763 25.12C40.1771 25.2036 40.1025 25.3171 40.0616 25.4465ZM39.6316 26.7251L39.5033 27.2366H39.9258L39.1035 30.6023H39.7824L40.7405 26.7251H39.6316Z" fill="#0A5095"/>
<path fill-rule="evenodd" clip-rule="evenodd" d="M45.9091 30.6024L46.5745 27.5084C46.8016 27.2631 47.0875 27.1213 47.3863 27.106C47.5926 27.106 47.7057 27.1982 47.7523 27.324C47.8118 27.5182 47.8118 27.7334 47.7523 27.9277L47.1801 30.6024H47.7856L48.3578 27.9863C48.4461 27.6503 48.4294 27.2845 48.3112 26.9634C48.2349 26.8345 48.1337 26.7322 48.0173 26.6662C47.9009 26.6002 47.7731 26.5726 47.6458 26.5861C47.3105 26.5932 46.9842 26.7244 46.7077 26.9634L46.7742 26.6616H45.7827L45.6696 27.1814H46.0356L45.3103 30.6024H45.9091Z" fill="#0A5095"/>
<path fill-rule="evenodd" clip-rule="evenodd" d="M26.69 27.4804H25.6348L26.0569 25.6254H27.0136C27.2222 25.6071 27.4293 25.6776 27.5975 25.8241C27.6638 25.9082 27.7094 26.0121 27.7293 26.1245C27.7491 26.2369 27.7424 26.3535 27.71 26.4618C27.6472 26.7496 27.5064 27.0054 27.3091 27.1905C27.1304 27.3546 26.9156 27.4552 26.69 27.4804ZM25.4941 24.996L24.2068 30.6023H24.9103L25.473 28.118H25.9514L26.6548 30.6023H27.5271L26.7533 28.118C27.1577 28.0532 27.5421 27.8711 27.8718 27.588C28.1844 27.3213 28.4082 26.9348 28.5049 26.4949C28.5543 26.313 28.5647 26.1195 28.5352 25.9317C28.5058 25.7439 28.4374 25.5676 28.3361 25.4184C28.1732 25.2526 27.9827 25.1287 27.7767 25.0545C27.5708 24.9804 27.3541 24.9577 27.1402 24.9877L25.4941 24.996Z" fill="#0A5095"/>
<path fill-rule="evenodd" clip-rule="evenodd" d="M43.0024 30.0192C42.9065 30.0661 42.8032 30.0888 42.6994 30.0859C42.6249 30.0966 42.5493 30.0855 42.4792 30.0536C42.4092 30.0216 42.3469 29.9697 42.2977 29.9026C42.256 29.835 42.2295 29.7559 42.2209 29.6727C42.2122 29.5897 42.2217 29.5054 42.2484 29.4278C42.2876 29.2372 42.3824 29.069 42.5162 28.9529C42.6578 28.828 42.8263 28.7529 43.0024 28.7363C43.1016 28.7076 43.2034 28.6936 43.3054 28.6947H43.7776L43.5944 29.5277C43.503 29.6666 43.3936 29.7875 43.2703 29.8859C43.1866 29.9449 43.0965 29.9898 43.0024 30.0192ZM43.0024 28.2364C42.6861 28.2226 42.375 28.3351 42.1194 28.5558C41.8636 28.7764 41.6782 29.0924 41.593 29.4528C41.5839 29.5357 41.5839 29.6197 41.593 29.7026V29.8443C41.593 30.2858 41.8608 30.6024 42.4175 30.6024C42.6299 30.6017 42.8403 30.5536 43.0377 30.4607C43.0377 30.4607 43.0729 30.4607 43.1081 30.4607C43.2691 30.3594 43.4163 30.2302 43.5451 30.0776L43.4252 30.5524H43.9961L44.588 28.0532C44.655 27.8822 44.6896 27.696 44.6896 27.5075C44.6896 27.3191 44.655 27.1329 44.588 26.9619C44.4807 26.8296 44.3496 26.7273 44.2046 26.6624C44.0595 26.5977 43.904 26.5718 43.7494 26.587C43.5119 26.586 43.2753 26.6195 43.0447 26.687C42.4598 26.8619 42.2413 27.2784 42.2202 27.6534L42.8122 27.695C42.8492 27.5252 42.9305 27.3737 43.0447 27.2618C43.2236 27.1384 43.4303 27.0831 43.6367 27.1035C43.7706 27.1035 43.9397 27.1035 44.0032 27.2618C44.0665 27.4201 44.0736 27.595 44.0032 27.7783L43.8833 28.2781H43.4182C43.282 28.2694 43.1456 28.2694 43.0095 28.2781L43.0024 28.2364Z" fill="#0A5095"/>
<path fill-rule="evenodd" clip-rule="evenodd" d="M58.1537 25.4465C58.1373 25.5029 58.1324 25.5632 58.1393 25.6224C58.1462 25.6817 58.1647 25.7379 58.1933 25.7865C58.2219 25.8351 58.2597 25.8746 58.3036 25.9015C58.3474 25.9285 58.3959 25.9422 58.445 25.9415C58.5602 25.9316 58.6701 25.8789 58.7598 25.7903C58.8495 25.7018 58.9146 25.5817 58.9463 25.4465C58.9638 25.3915 58.9696 25.332 58.9629 25.2736C58.9562 25.2151 58.9373 25.1598 58.9082 25.1126C58.879 25.0656 58.8405 25.0283 58.7961 25.0044C58.7518 24.9806 58.7033 24.9709 58.6551 24.9763C58.5426 24.9855 58.435 25.035 58.3457 25.1188C58.2564 25.2024 58.1896 25.3165 58.1537 25.4465ZM57.5846 26.7251L57.4762 27.2366H57.8488L57.1035 30.6023H57.693L58.5534 26.7251H57.5846Z" fill="#0A5095"/>
<path fill-rule="evenodd" clip-rule="evenodd" d="M59.9119 26.6589L58.9656 30.6024H59.6935L60.2176 28.337C60.288 28.0859 60.3858 27.8463 60.5088 27.6237C60.5664 27.4982 60.6507 27.3915 60.7538 27.3138C60.8569 27.2359 60.9755 27.1896 61.0985 27.1791C61.1457 27.1749 61.1932 27.1817 61.2382 27.199C61.2832 27.2163 61.3248 27.2437 61.3605 27.2797C61.4174 27.3724 61.4432 27.4857 61.4333 27.5986L62.0229 27.3972C62.1392 27.0029 62.0229 26.7763 61.8118 26.6589C61.7016 26.6041 61.5823 26.5783 61.4624 26.5834C61.2588 26.5924 61.06 26.6563 60.8817 26.7699C60.7034 26.8836 60.5508 27.0439 60.436 27.2378L60.5743 26.6589H59.9119Z" fill="#0A5095"/>
<path fill-rule="evenodd" clip-rule="evenodd" d="M63.2521 24.9749L62.1454 30.2149C62.0568 30.6058 61.8945 31.4062 62.6916 31.4062H63.0752L63.2006 30.8292H63.0162C62.6842 30.8292 62.7655 30.4755 62.7872 30.3918L63.9311 25.0121L63.2521 24.9749Z" fill="#0A5095"/>
<path fill-rule="evenodd" clip-rule="evenodd" d="M65.6224 25.446C65.6063 25.5024 65.6013 25.5629 65.6082 25.6222C65.615 25.6815 65.6336 25.7379 65.6616 25.7866C65.6895 25.8352 65.7267 25.8748 65.7695 25.9018C65.813 25.9288 65.8602 25.9425 65.9086 25.9417C66.0228 25.9356 66.132 25.8841 66.2208 25.7948C66.3089 25.7055 66.3722 25.5833 66.4008 25.446C66.4144 25.3909 66.4175 25.3326 66.4095 25.2759C66.4014 25.2191 66.3828 25.1655 66.3549 25.1195C66.3269 25.0735 66.2903 25.0364 66.2487 25.0113C66.2071 24.9861 66.1612 24.9737 66.1147 24.9749C66.0042 24.9831 65.898 25.0323 65.8105 25.1163C65.7224 25.2003 65.6572 25.3152 65.6224 25.446ZM65.0638 26.7268L64.9577 27.2391H65.3233L64.5518 30.6023H65.2171L66.0551 26.7185L65.0638 26.7268Z" fill="#0A5095"/>
<path fill-rule="evenodd" clip-rule="evenodd" d="M67.0103 30.6024L67.6651 27.5087C67.8948 27.2655 68.1797 27.1243 68.4776 27.1063C68.6806 27.1063 68.7917 27.1985 68.8314 27.3242C68.8705 27.45 68.8314 27.8022 68.8314 27.9279L68.248 30.6024H68.9034L69.4602 27.9866C69.5495 27.651 69.5334 27.284 69.4142 26.9638C69.3397 26.8342 69.2398 26.7316 69.1256 26.6655C69.0108 26.5994 68.8848 26.5722 68.7594 26.5865C68.4286 26.5916 68.1071 26.723 67.8352 26.9638L67.8942 26.662H66.8855L66.7744 27.1817H67.1344L66.4138 30.6024H67.0103Z" fill="#0A5095"/>
<path fill-rule="evenodd" clip-rule="evenodd" d="M76.9655 27.1099C76.8842 26.946 76.7588 26.8165 76.608 26.7408C76.4094 26.6247 76.1872 26.5709 75.9643 26.5849C75.6838 26.5695 75.4051 26.6494 75.1636 26.8146C74.8639 27.0124 74.6435 27.336 74.5485 27.7169C74.507 27.8382 74.4908 27.9693 74.502 28.0991C74.5132 28.2289 74.551 28.3538 74.6131 28.4634C74.7416 28.6237 74.9079 28.7377 75.0923 28.7915L75.4212 28.9145C75.5851 28.9555 75.7645 28.9555 75.857 29.1032C75.8992 29.1519 75.9277 29.2132 75.9407 29.28C75.9532 29.3468 75.9488 29.4163 75.9283 29.4805C75.8824 29.6267 75.8005 29.7548 75.6925 29.8497C75.5205 30.0124 75.3002 30.0918 75.078 30.0711C74.9036 30.0707 74.7323 30.0229 74.5771 29.9317C74.4703 29.8424 74.3741 29.7377 74.291 29.62L73.8621 30.0711C73.9856 30.254 74.1476 30.398 74.3325 30.4898C74.5175 30.5816 74.7199 30.6182 74.9203 30.5961C75.3468 30.6127 75.7663 30.4687 76.1145 30.1859C76.3374 29.9684 76.5031 29.6845 76.5937 29.3657C76.662 29.1511 76.662 28.9158 76.5937 28.7013C76.5348 28.5892 76.4559 28.4926 76.3622 28.4177C76.2685 28.3428 76.1623 28.2913 76.05 28.2665L75.8073 28.1927C75.5212 28.1107 75.3778 28.0778 75.2996 27.9794C75.2543 27.9262 75.2239 27.8591 75.2108 27.7865C75.1984 27.7137 75.204 27.6383 75.2276 27.5693C75.2692 27.4154 75.3548 27.2823 75.4709 27.192C75.6056 27.1022 75.7589 27.0568 75.9141 27.0607C76.063 27.0574 76.2095 27.1029 76.3361 27.192C76.4236 27.2745 76.5031 27.368 76.572 27.4709L76.9655 27.1099Z" fill="#0A5095"/>
<path fill-rule="evenodd" clip-rule="evenodd" d="M54.0251 28.5824L55.371 26.1802L55.5319 28.5824H54.0251ZM52.906 30.6023L53.6374 29.2391H55.5392L55.627 30.6023H56.4828L56.0146 24.9749H55.4075L52.1379 30.6023H52.906Z" fill="#0A5095"/>
<path fill-rule="evenodd" clip-rule="evenodd" d="M71.6717 28.252V28.0798C71.7387 27.8034 71.8697 27.5518 72.0509 27.35C72.2067 27.1858 72.4128 27.0949 72.6269 27.0958C72.7063 27.0899 72.7858 27.102 72.8609 27.1316C72.936 27.1612 73.0055 27.2076 73.0645 27.268C73.1179 27.3962 73.1458 27.5362 73.1458 27.678C73.1458 27.8198 73.1179 27.9598 73.0645 28.088V28.252H71.6717ZM71.5692 28.7603H73.6622L73.7206 28.5062C73.8137 28.2757 73.8621 28.0255 73.8621 27.7723C73.8621 27.5191 73.8137 27.2688 73.7206 27.0384C73.6119 26.8824 73.4704 26.7595 73.3084 26.6807C73.1464 26.6019 72.9701 26.5699 72.7945 26.5874C72.3538 26.5853 71.928 26.7663 71.5984 27.0958C71.2117 27.5158 70.956 28.0651 70.8691 28.662C70.7866 28.9005 70.7493 29.156 70.7605 29.4118C70.7717 29.6677 70.8312 29.9179 70.9349 30.146C71.0714 30.3057 71.2378 30.4291 71.4215 30.5071C71.6059 30.5851 71.8032 30.6158 71.9994 30.597C72.2477 30.5955 72.4941 30.5484 72.7287 30.4576C72.8895 30.3924 73.0459 30.3129 73.1955 30.2198L73.0937 29.7689C72.9503 29.8509 72.7982 29.9115 72.6412 29.9492C72.481 29.9909 72.3172 30.0157 72.1527 30.023C72.0403 30.0338 71.9268 30.0149 71.8219 29.9679C71.717 29.921 71.6226 29.8472 71.5475 29.7525C71.4817 29.6301 71.4426 29.4919 71.4339 29.3494C71.4252 29.2068 71.4463 29.0639 71.4966 28.9325L71.5475 28.7767L71.5692 28.7603Z" fill="#0A5095"/>
<path fill-rule="evenodd" clip-rule="evenodd" d="M123.354 13.7376C124.674 15.465 125.436 17.7822 125.486 20.216C125.536 22.6497 124.869 25.0164 123.623 26.8327C122.376 28.6491 120.643 29.7781 118.778 29.9893C116.912 30.2003 115.055 29.4776 113.586 27.9686C114.299 28.8514 115.142 29.5387 116.063 29.9898C116.985 30.4409 117.967 30.6465 118.951 30.5944C119.935 30.5424 120.9 30.2336 121.791 29.6867C122.681 29.1398 123.478 28.3657 124.134 27.4104C124.79 26.4552 125.291 25.3383 125.608 24.1262C125.925 22.914 126.052 21.6313 125.981 20.3542C125.909 19.0771 125.641 17.8318 125.192 16.6921C124.743 15.5524 124.123 14.5417 123.368 13.72L123.354 13.7376Z" fill="#233B77"/>
<path fill-rule="evenodd" clip-rule="evenodd" d="M110.283 25.0158C110.068 25.1803 110.019 25.4314 110.13 25.821C110.24 26.2105 110.387 26.3231 110.553 26.2278C110.719 26.1326 110.713 25.9941 110.658 25.5612V25.4054C110.613 25.1495 110.613 24.8822 110.658 24.6262C110.667 24.5341 110.695 24.4475 110.737 24.3757C110.779 24.304 110.835 24.2499 110.897 24.2194C111.198 24.0549 111.511 24.3146 111.652 24.912C111.794 25.5093 111.738 26.046 111.382 26.2538L111.29 25.9422C111.542 25.7863 111.603 25.4573 111.468 24.9899C111.333 24.5224 111.185 24.4358 111.008 24.5397C110.83 24.6436 110.823 24.8167 110.879 25.2496V25.5959C110.908 25.7841 110.908 25.9791 110.879 26.1673C110.866 26.2516 110.838 26.3298 110.797 26.3937C110.756 26.4576 110.704 26.5049 110.645 26.5308C110.363 26.6953 110.093 26.4616 109.939 25.9248C109.786 25.3881 109.86 24.9033 110.179 24.7042L110.283 25.0158Z" fill="#233B77"/>
<path fill-rule="evenodd" clip-rule="evenodd" d="M109.993 21.4265L111.071 20.1514L111.077 20.6134L110.163 21.6853L110.463 22.1473L111.104 22.1289V22.4984L109.274 22.5631L109.268 22.1842L109.986 22.1658H110.182L110.123 22.0734L110.058 21.981L109.248 20.7427L109.241 20.253L109.993 21.4265Z" fill="#233B77"/>
<path fill-rule="evenodd" clip-rule="evenodd" d="M111.085 17.6427L111.724 17.9899L111.647 18.3466L111.009 17.9899L109.862 18.5436L109.956 18.1026L110.672 17.7928H110.755L110.879 17.7459C110.831 17.6639 110.788 17.576 110.749 17.4831L110.311 16.5447L110.4 16.1318L111.085 17.6427Z" fill="#233B77"/>
<path fill-rule="evenodd" clip-rule="evenodd" d="M112.28 13.1795L111.929 13.7545L112.966 14.9125L112.72 15.3278L111.683 14.1698L111.338 14.7448L111.104 14.4813L112.046 12.916L112.28 13.1795Z" fill="#233B77"/>
<path fill-rule="evenodd" clip-rule="evenodd" d="M115.217 10.9075L114.199 11.6509L114.416 12.1167L115.347 11.427L115.528 11.8032L114.589 12.484L114.842 13.0214L115.881 12.26L116.069 12.6631L114.611 13.7201L113.586 11.5524L115.03 10.5044L115.217 10.9075Z" fill="#233B77"/>
<path fill-rule="evenodd" clip-rule="evenodd" d="M117.579 10.6362C117.51 10.4972 117.449 10.3523 117.397 10.2026C117.382 10.367 117.358 10.5298 117.325 10.6895L117.252 11.1003L117.748 11.0014L117.579 10.6362ZM118.552 11.7394L118.104 11.7775L117.887 11.3133L117.204 11.4503L117.107 11.9753L116.69 12.1122L117.131 9.78413L117.548 9.70044L118.552 11.7394Z" fill="#233B77"/>
<path fill-rule="evenodd" clip-rule="evenodd" d="M121.178 12.9161L120.802 12.7084L120.949 11.9587C120.949 11.8683 120.949 11.7509 121.012 11.5883L121.088 11.2179C121.088 11.1186 121.133 11.0102 121.159 10.9018L121.203 10.7212C121.128 10.9117 121.046 11.0957 120.955 11.2722C120.923 11.3537 120.886 11.4322 120.846 11.507L120.337 12.5187L120.019 12.3922L119.904 11.1818C119.904 11.1186 119.904 11.0373 119.904 10.9108C119.904 10.7844 119.904 10.6308 119.904 10.5495V10.2424L119.86 10.5495C119.809 10.8837 119.784 11.0283 119.714 11.4528L119.567 12.2658L119.172 12.1845L119.618 9.70044L120.216 9.86299L120.306 11.0373C120.322 11.3138 120.322 11.5918 120.306 11.8683C120.375 11.6877 120.401 11.6245 120.478 11.4528C120.52 11.35 120.567 11.2506 120.617 11.1547L121.082 10.1973L121.655 10.4683L121.178 12.9161Z" fill="#233B77"/>
<path fill-rule="evenodd" clip-rule="evenodd" d="M121.894 20.5472C122.265 20.1597 122.715 19.912 123.191 19.8322C123.363 19.8322 123.568 19.902 123.568 20.1636C123.568 20.4252 123.363 20.6693 122.957 20.8524C122.476 21.0258 121.971 21.0674 121.475 20.9745C121.606 20.8179 121.745 20.675 121.894 20.5472ZM114.084 21.4191C113.741 21.4191 113.57 21.2186 113.57 20.8786C113.57 20.8349 113.57 19.7625 115.525 19.6404C115.804 19.6081 116.084 19.6081 116.363 19.6404L116.143 19.8759L116.026 20.0153C115.559 20.5472 114.784 21.4454 114.084 21.3843V21.4191ZM118.257 17.3821C118.024 17.6349 117.57 18.2017 117.117 18.7423L116.61 19.3614C116.2 19.2671 115.784 19.2204 115.368 19.2219C114.579 19.169 113.802 19.4786 113.178 20.0938C113.111 20.1748 113.058 20.2723 113.021 20.3802C112.985 20.488 112.966 20.6041 112.966 20.7216C112.966 21.2971 113.487 21.5936 113.652 21.6633C114.021 21.8623 114.426 21.9324 114.825 21.8665C115.222 21.8006 115.599 21.6011 115.916 21.2883C116.366 20.8595 116.79 20.3903 117.186 19.8845C117.481 19.9718 117.818 20.0851 118.181 20.2159L118.511 20.3467C118.085 20.8786 117.639 21.454 117.227 21.9074H117.193C116.766 22.5038 116.221 22.9435 115.615 23.1805C115.345 23.2809 115.055 23.2563 114.798 23.1108C114.962 23.3059 115.157 23.4525 115.371 23.54C115.584 23.6274 115.811 23.6536 116.033 23.6165C116.717 23.4577 117.343 23.0236 117.818 22.3783L118.675 21.3058L119.272 20.556L120.48 21.0094L119.726 21.9337L119.087 22.7533C118.65 23.3233 118.179 23.8508 117.68 24.3314C117.202 24.8226 116.628 25.1391 116.019 25.247C115.707 25.2847 115.392 25.2059 115.114 25.0203C115.296 25.2611 115.514 25.4524 115.756 25.5828C115.998 25.7132 116.258 25.7799 116.52 25.7789C117.296 25.7789 117.982 25.2731 119.053 24.035C119.54 23.4683 120.027 22.823 120.425 22.2911L121.221 21.2622C121.717 21.4065 122.223 21.4738 122.731 21.4628C123.486 21.4628 124.104 20.9832 124.138 20.4601C124.127 20.3068 124.085 20.16 124.014 20.0345C123.945 19.9089 123.85 19.809 123.74 19.7451C123.466 19.5187 123.147 19.3975 122.82 19.3962C122.165 19.4417 121.544 19.7781 121.064 20.3467L120.665 20.7914C120.619 20.7688 120.57 20.7513 120.521 20.739L119.416 20.3467C119.739 19.9543 120.02 19.6229 120.267 19.344C120.733 18.7919 121.324 18.4409 121.956 18.3412C122.293 18.2981 122.633 18.3641 122.944 18.5331C122.571 18.094 122.08 17.8537 121.571 17.8616C120.928 17.895 120.311 18.2021 119.821 18.7336C119.426 19.1528 119.05 19.6012 118.696 20.0764L118.133 19.8584L117.996 19.8061L117.413 19.5707L117.749 19.1695C118.14 18.6813 118.518 18.2105 118.812 17.8965C119.389 17.1339 120.171 16.6762 121.002 16.6147C121.427 16.5838 121.848 16.7209 122.21 17.0071C121.98 16.7129 121.704 16.4832 121.401 16.3331C121.097 16.1828 120.771 16.1154 120.446 16.1352C119.618 16.2258 118.843 16.6861 118.257 17.4344V17.3821Z" fill="#233B77"/>
<path fill-rule="evenodd" clip-rule="evenodd" d="M122.583 10.8458C122.615 10.8458 122.673 10.9313 122.699 10.8458C122.724 10.7603 122.699 10.7688 122.647 10.7517L122.57 10.6919L122.532 10.7859H122.583V10.8458ZM122.615 11.1708H122.57V10.9399H122.525L122.448 11.1195H122.41L122.57 10.7432L122.692 10.8372C122.743 10.8372 122.782 10.9313 122.75 11.0083C122.744 11.0241 122.736 11.038 122.725 11.049C122.715 11.0601 122.703 11.0679 122.69 11.072C122.678 11.0761 122.664 11.0763 122.651 11.0727C122.638 11.0691 122.626 11.0617 122.615 11.0511V11.2819V11.1708ZM122.789 11.0596C122.773 11.0974 122.752 11.1308 122.727 11.1578C122.702 11.1848 122.673 11.2048 122.642 11.2167C122.611 11.2287 122.578 11.2323 122.547 11.2274C122.514 11.2224 122.483 11.2089 122.455 11.1879C122.411 11.1568 122.375 11.1089 122.351 11.0503C122.327 10.9916 122.318 10.9249 122.323 10.8588C122.328 10.7927 122.348 10.7301 122.38 10.679C122.412 10.628 122.455 10.5909 122.502 10.5725C122.55 10.5541 122.601 10.5551 122.649 10.5756C122.696 10.596 122.738 10.635 122.769 10.6874C122.8 10.7397 122.818 10.8031 122.822 10.8695C122.825 10.9358 122.813 11.002 122.789 11.0596ZM122.301 10.7432C122.316 10.6955 122.337 10.6522 122.365 10.6159C122.393 10.5796 122.425 10.5511 122.461 10.5319C122.497 10.5128 122.535 10.5034 122.574 10.5045C122.612 10.5055 122.651 10.5169 122.686 10.5379C122.726 10.5538 122.763 10.5807 122.794 10.6169C122.826 10.6531 122.851 10.6978 122.869 10.748C122.887 10.7982 122.896 10.8529 122.897 10.9084C122.897 10.9638 122.889 11.0189 122.873 11.0699C122.856 11.1209 122.832 11.1667 122.802 11.2043C122.771 11.2418 122.735 11.2704 122.696 11.288C122.656 11.3056 122.614 11.3119 122.573 11.3064C122.531 11.3009 122.491 11.2839 122.455 11.2563C122.419 11.2367 122.387 11.2077 122.36 11.1712C122.332 11.1346 122.311 11.091 122.296 11.0432C122.282 10.9953 122.275 10.9441 122.276 10.8925C122.277 10.841 122.285 10.7902 122.301 10.7432Z" fill="#233B77"/>
</g>
<defs>
<linearGradient id="paint0_linear_1_314" x1="49.6243" y1="11.0984" x2="66.2276" y2="33.097" gradientUnits="userSpaceOnUse">
<stop stop-color="#C4161C"/>
<stop offset="0.3" stop-color="#ED1C24"/>
<stop offset="0.53" stop-color="#F8ABAD"/>
<stop offset="0.75" stop-color="#ED1C24"/>
<stop offset="1" stop-color="#C4161C"/>
</linearGradient>
<linearGradient id="paint1_linear_1_314" x1="38.8686" y1="12.37" x2="62.3053" y2="46.7915" gradientUnits="userSpaceOnUse">
<stop stop-color="white"/>
<stop offset="0.34" stop-color="white"/>
<stop offset="0.54" stop-color="white"/>
<stop offset="0.91" stop-color="#C7D2EC"/>
<stop offset="1" stop-color="#C7D2EC"/>
</linearGradient>
<linearGradient id="paint2_linear_1_314" x1="53.1843" y1="15.4878" x2="65.1608" y2="36.53" gradientUnits="userSpaceOnUse">
<stop stop-color="#00529B"/>
<stop offset="0.13" stop-color="#00529B"/>
<stop offset="0.46" stop-color="#7D97CD"/>
<stop offset="0.64" stop-color="#00529B"/>
<stop offset="0.92" stop-color="#00529B"/>
<stop offset="1" stop-color="#00529B"/>
</linearGradient>
<linearGradient id="paint3_linear_1_314" x1="18.2148" y1="2.96508" x2="57.1358" y2="56.8431" gradientUnits="userSpaceOnUse">
<stop stop-color="#C4161C"/>
<stop offset="0.47" stop-color="#ED1C24"/>
<stop offset="1" stop-color="#F8ABAD"/>
</linearGradient>
<linearGradient id="paint4_linear_1_314" x1="39.842" y1="8.57258" x2="70.207" y2="48.1137" gradientUnits="userSpaceOnUse">
<stop stop-color="#C7D6EE"/>
<stop offset="0.07" stop-color="#C7D6EE"/>
<stop offset="0.37" stop-color="#00529B"/>
<stop offset="0.95" stop-color="#C7D6EE"/>
<stop offset="1" stop-color="#C7D6EE"/>
</linearGradient>
<linearGradient id="paint5_linear_1_314" x1="43.3353" y1="10.8858" x2="68.4205" y2="45.0389" gradientUnits="userSpaceOnUse">
<stop stop-color="white"/>
<stop offset="0.17" stop-color="white"/>
<stop offset="0.35" stop-color="#D9E0F1"/>
<stop offset="0.7" stop-color="white"/>
<stop offset="1" stop-color="white"/>
</linearGradient>
<linearGradient id="paint6_linear_1_314" x1="39.9933" y1="7.66935" x2="71.3509" y2="45.0249" gradientUnits="userSpaceOnUse">
<stop stop-color="#F8ABAD"/>
<stop offset="0.06" stop-color="#F8ABAD"/>
<stop offset="0.28" stop-color="#ED1C24"/>
<stop offset="0.52" stop-color="#C4161C"/>
<stop offset="0.69" stop-color="#ED1C24"/>
<stop offset="0.89" stop-color="#F7A3A1"/>
<stop offset="1" stop-color="#F8ABAD"/>
</linearGradient>
<clipPath id="clip0_1_314">
<rect width="126" height="41" fill="white" transform="translate(0 0.455322)"/>
</clipPath>
</defs>
</svg>
