<svg width="136" height="57" viewBox="0 0 136 57" fill="none" xmlns="http://www.w3.org/2000/svg">
<g clip-path="url(#clip0_2004_1299)">
<path d="M72.3682 22.5812C72.3998 18.788 68.9617 15.3926 65.3519 15.5508C62.1217 15.6865 58.8779 15.6187 55.6431 15.5508C54.1296 15.5147 53.199 15.9216 52.4807 17.409C51.2654 19.855 48.7082 19.8641 47.4116 17.4678C46.6029 15.9759 45.5503 15.5463 43.9645 15.5508C31.9923 15.5915 20.02 15.5508 8.05677 15.5826C3.53893 15.578 0.746912 18.4263 0.737877 22.9202C0.724323 31.5874 0.85534 40.2497 0.674627 48.9122C0.602341 52.5879 3.43954 56.6885 8.30525 56.5439C14.0971 56.3767 19.898 56.5078 25.6944 56.5078C31.7934 56.5078 37.8926 56.4851 43.9871 56.5078C45.4464 56.5078 46.4674 56.2456 47.2309 54.7219C48.5411 52.0996 51.2202 52.1764 52.5891 54.8033C52.8219 55.3545 53.2243 55.8168 53.7378 56.1234C54.2513 56.43 54.8491 56.5646 55.4444 56.5078C58.6792 56.458 61.9184 56.5078 65.1532 56.5078C69.4 56.4715 72.3004 53.6956 72.3275 49.4684C72.3862 40.4985 72.2914 31.5285 72.3682 22.5812Z" fill="#7866FF"/>
<path d="M37.2329 37.4151C37.0071 37.4151 36.7811 37.4151 36.5553 37.4151C35.1728 37.4783 33.7994 37.4603 32.4892 37.8898C31.753 38.1606 31.0569 38.5301 30.4201 38.9884C29.7441 39.454 29.1039 39.9694 28.5045 40.5301C27.4772 41.4127 26.3921 42.2253 25.2561 42.9624C24.443 43.5321 23.5349 43.7447 22.9024 42.7636C22.2699 41.7825 22.7261 41.0454 23.5303 40.426C23.9189 40.426 25.1794 39.2054 25.4731 38.925C26.0286 38.3915 26.5663 37.8807 27.1763 37.3924C23.9776 37.6366 20.7248 37.5055 17.5171 37.4828C16.5503 37.4828 15.4254 37.6457 14.8742 36.6239C14.2823 35.5206 12.1635 32.6678 13.8848 31.5918C14.7883 31.0312 15.8997 31.7772 16.1979 32.6588C16.6903 34.1327 17.725 34.4672 19.1796 34.404C21.7367 34.2729 24.2984 34.4447 26.86 34.2593C26.5663 33.5676 26.0286 33.3958 25.4414 33.043C24.7663 32.5826 24.1162 32.086 23.4942 31.5556C22.6538 30.9226 22.3421 30.0727 22.9295 29.2046C23.5168 28.3366 24.4067 28.3593 25.2697 29.0328C27.0453 30.4163 28.884 31.7456 30.6279 33.1516C31.1919 33.6281 31.8423 33.992 32.5435 34.2231C32.902 34.3114 33.268 34.3658 33.6367 34.3859C34.0343 34.422 34.4318 34.4537 34.8295 34.4763C35.5026 34.5124 36.1847 34.4763 36.8489 34.4763C37.5131 34.4763 38.2043 34.4763 38.6967 34.9284C38.8675 35.1062 38.9944 35.3213 39.0674 35.5567C39.1403 35.7922 39.1572 36.0415 39.1168 36.2847C39.0737 36.5324 38.955 36.7605 38.7771 36.9378C38.5991 37.115 38.3706 37.2328 38.1229 37.2749C37.8361 37.371 37.5353 37.4183 37.2329 37.4151Z" fill="white"/>
<path d="M65.9573 29.4579C65.9573 28.3667 65.0734 27.4821 63.983 27.4821C62.8927 27.4821 62.0087 28.3667 62.0087 29.4579V42.3114C62.0087 43.4025 62.8927 44.2871 63.983 44.2871C65.0734 44.2871 65.9573 43.4025 65.9573 42.3114V29.4579Z" fill="white"/>
<path d="M59.8854 28.9876C59.8854 28.1562 59.2128 27.4821 58.3832 27.4821C57.5536 27.4821 56.881 28.1562 56.881 28.9876V33.8794C56.881 34.711 57.5536 35.3851 58.3832 35.3851C59.2128 35.3851 59.8854 34.711 59.8854 33.8794V28.9876Z" fill="white"/>
<path d="M49.8196 23.9376C50.7774 23.9376 51.3422 24.6836 51.3512 25.9947C51.3602 27.3059 50.7684 28.1739 49.919 28.1603C49.0696 28.1467 48.392 27.2923 48.383 26.058C48.3694 24.6972 48.8664 23.9692 49.8196 23.9376Z" fill="white"/>
<path d="M51.3512 35.9637C51.3782 37.3201 50.8994 38.0751 49.937 38.1429C48.9748 38.2108 48.4055 37.4015 48.383 36.122C48.3604 34.8425 48.9071 33.9835 49.7835 33.9383C50.66 33.893 51.3285 34.6888 51.3512 35.9637Z" fill="white"/>
<path d="M49.8649 48.1165C48.9838 48.1165 48.383 47.253 48.383 45.9961C48.383 44.7393 48.9838 43.8667 49.8649 43.8802C50.7458 43.8938 51.3421 44.7347 51.3512 46.0097C51.3602 47.2846 50.7684 48.1165 49.8649 48.1165Z" fill="white"/>
<path d="M66.3866 12.68H62.1171C60.161 12.68 58.2048 12.68 56.2439 12.68C52.6974 12.68 52.2637 12.8744 49.9733 15.2525C48.8257 14.4794 47.782 13.444 46.5307 13.0191C45.2792 12.5941 43.8651 12.6981 42.5188 12.689C37.4815 12.6574 32.4441 12.689 27.4021 12.689H25.2335L25.1251 12.2731C25.5318 12.0606 25.9248 11.821 26.3449 11.6446C29.1234 10.5144 31.92 9.42476 34.6894 8.26283C35.9047 7.75195 36.867 7.77456 37.9875 8.67426C40.5355 10.7133 42.7266 9.7548 43.1287 6.48603C43.1651 5.9619 43.3581 5.46084 43.6828 5.048C44.0076 4.63517 44.4488 4.32965 44.9493 4.17122C48.017 2.95051 51.0665 1.69817 54.1522 0.554317C58.006 -0.896962 61.6247 0.554317 63.3686 4.28876C64.4394 6.59905 65.2797 9.01334 66.2059 11.3914C66.3038 11.8148 66.3642 12.246 66.3866 12.68Z" fill="#7866FF"/>
<path d="M90.6926 34.3361V22.9922H93.7405V24.9716H93.8586C94.0653 24.2675 94.412 23.7357 94.8992 23.3762C95.3862 23.012 95.947 22.8297 96.5818 22.8297C96.7392 22.8297 96.909 22.8396 97.0911 22.8593C97.273 22.879 97.4329 22.9061 97.5707 22.9406V25.7322C97.4231 25.6879 97.2188 25.6485 96.9582 25.614C96.6973 25.5796 96.4587 25.5623 96.2423 25.5623C95.7798 25.5623 95.3665 25.6633 95.0024 25.8651C94.6433 26.062 94.358 26.3378 94.1463 26.6923C93.9398 27.0468 93.8365 27.4554 93.8365 27.9183V34.3361H90.6926Z" fill="#333333"/>
<path d="M99.1961 34.3361V22.9922H102.34V34.3361H99.1961ZM100.775 21.53C100.308 21.53 99.9071 21.3749 99.5725 21.0646C99.2428 20.7495 99.078 20.3729 99.078 19.9347C99.078 19.5015 99.2428 19.1297 99.5725 18.8195C99.9071 18.5044 100.308 18.3468 100.775 18.3468C101.243 18.3468 101.641 18.5044 101.971 18.8195C102.306 19.1297 102.473 19.5015 102.473 19.9347C102.473 20.3729 102.306 20.7495 101.971 21.0646C101.641 21.3749 101.243 21.53 100.775 21.53Z" fill="#333333"/>
<path d="M115.427 22.9922L111.464 34.3361H107.921L103.958 22.9922H107.279L109.633 31.1087H109.751L112.098 22.9922H115.427Z" fill="#333333"/>
<path d="M77.2961 55.1333V40.0082H83.3477C84.4595 40.0082 85.387 40.1731 86.1299 40.503C86.8728 40.8328 87.4312 41.2907 87.8051 41.8766C88.179 42.4575 88.3661 43.1272 88.3661 43.8854C88.3661 44.4763 88.248 44.9957 88.0118 45.4437C87.7756 45.8869 87.451 46.2512 87.0376 46.5367C86.6293 46.8174 86.1619 47.0169 85.6354 47.1349V47.2827C86.2111 47.3073 86.7498 47.4698 87.2517 47.7701C87.7584 48.0704 88.1692 48.4914 88.4842 49.033C88.799 49.5697 88.9564 50.2097 88.9564 50.9533C88.9564 51.7557 88.7571 52.4722 88.3587 53.1023C87.9651 53.7277 87.382 54.2225 86.6097 54.5867C85.8371 54.9511 84.8851 55.1333 83.7535 55.1333H77.2961ZM80.4915 52.5189H83.0967C83.9873 52.5189 84.6367 52.3491 85.045 52.0093C85.4534 51.6647 85.6575 51.2068 85.6575 50.6357C85.6575 50.2172 85.5567 49.8479 85.355 49.5279C85.1532 49.2078 84.8655 48.9566 84.4916 48.7745C84.1225 48.5924 83.6822 48.5013 83.1705 48.5013H80.4915V52.5189ZM80.4915 46.3373H82.8605C83.2984 46.3373 83.6871 46.2611 84.0266 46.1084C84.371 45.9508 84.6416 45.7293 84.8384 45.4437C85.0401 45.1581 85.141 44.816 85.141 44.4171C85.141 43.8706 84.9467 43.4299 84.5579 43.0951C84.1742 42.7603 83.628 42.593 82.9196 42.593H80.4915V46.3373Z" fill="#333333"/>
<path d="M90.9767 55.1333V43.7894H94.1206V55.1333H90.9767ZM92.5559 42.3271C92.0886 42.3271 91.6876 42.172 91.3531 41.8619C91.0235 41.5468 90.8586 41.17 90.8586 40.7319C90.8586 40.2986 91.0235 39.9269 91.3531 39.6166C91.6876 39.3015 92.0886 39.1441 92.5559 39.1441C93.0235 39.1441 93.4219 39.3015 93.7515 39.6166C94.0862 39.9269 94.2534 40.2986 94.2534 40.7319C94.2534 41.17 94.0862 41.5468 93.7515 41.8619C93.4219 42.172 93.0235 42.3271 92.5559 42.3271Z" fill="#333333"/>
<path d="M99.7828 40.0082V55.1333H96.639V40.0082H99.7828Z" fill="#333333"/>
<path fill-rule="evenodd" clip-rule="evenodd" d="M77.2961 19.2109V34.3361H80.4915V29.4322H83.1779C84.339 29.4322 85.3279 29.2181 86.1447 28.7898C86.9664 28.3614 87.5936 27.7632 88.0266 26.9951C88.4595 26.2271 88.6761 25.3408 88.6761 24.3364C88.6761 23.332 88.4619 22.4458 88.0339 21.6776C87.6108 20.9046 86.9958 20.3015 86.1889 19.8682C85.382 19.4301 84.4054 19.2109 83.2591 19.2109H77.2961ZM80.4915 26.8695H79.3771V29.4322H80.4915V26.8695ZM80.4915 26.8695V21.8253H82.6465C83.2665 21.8253 83.7782 21.9312 84.1816 22.1429C84.585 22.3497 84.8851 22.6427 85.0819 23.0218C85.2836 23.3959 85.3846 23.8341 85.3846 24.3364C85.3846 24.8337 85.2836 25.2743 85.0819 25.6584C84.8851 26.0375 84.585 26.3354 84.1816 26.552C83.783 26.7637 83.2763 26.8695 82.6613 26.8695H80.4915Z" fill="#333333"/>
<path d="M79.3771 26.8695V29.4322H80.4915V26.8695H79.3771Z" fill="#333333"/>
<path fill-rule="evenodd" clip-rule="evenodd" d="M118.825 33.8488C119.666 34.3213 120.67 34.5577 121.836 34.5577C122.771 34.5577 123.595 34.415 124.308 34.1293C125.027 33.8389 125.612 33.4351 126.065 32.9182C126.522 32.3962 126.825 31.7858 126.973 31.0866L124.065 30.8945C123.957 31.1801 123.799 31.4214 123.592 31.6183C123.386 31.8152 123.137 31.963 122.847 32.0614C122.557 32.1599 122.237 32.2092 121.888 32.2092C121.361 32.2092 120.906 32.0983 120.523 31.8768C120.139 31.6552 119.841 31.3401 119.63 30.9315C119.423 30.5228 119.32 30.0379 119.32 29.4766V29.4691H127.039V28.605C127.039 27.6401 126.904 26.7981 126.633 26.0793C126.362 25.3555 125.984 24.7548 125.497 24.2772C125.014 23.7997 124.449 23.4427 123.799 23.2065C123.155 22.9652 122.458 22.8445 121.711 22.8445C120.599 22.8445 119.63 23.0907 118.803 23.5831C117.981 24.0754 117.344 24.7623 116.891 25.6436C116.439 26.5249 116.213 27.549 116.213 28.7159C116.213 29.9124 116.439 30.9487 116.891 31.8251C117.344 32.6966 117.989 33.3711 118.825 33.8488ZM119.322 27.5195H124.08C124.08 27.0664 123.981 26.6653 123.784 26.3157C123.588 25.9661 123.315 25.6927 122.965 25.4958C122.621 25.294 122.22 25.193 121.762 25.193C121.285 25.193 120.862 25.3038 120.493 25.5254C120.129 25.742 119.843 26.035 119.637 26.4043C119.446 26.7403 119.341 27.112 119.322 27.5195ZM119.32 27.6229C119.32 27.5881 119.321 27.5537 119.322 27.5195H117.467V29.4691H119.32V27.6229Z" fill="#333333"/>
<path d="M117.467 27.5195V29.4691H119.32V27.6229C119.32 27.5881 119.321 27.5537 119.322 27.5195H117.467Z" fill="#333333"/>
<path fill-rule="evenodd" clip-rule="evenodd" d="M135.121 22.9922V25.3555H132.987V22.9922H135.121ZM129.843 22.9922V25.3555H128.294V22.9922H129.843ZM129.843 22.9922H132.987V20.2745H129.843V22.9922Z" fill="#333333"/>
<path d="M133.12 31.5297C133.032 31.3672 132.987 31.1407 132.987 30.8503V25.3555H129.843V31.2638C129.839 32.0073 129.994 32.6227 130.308 33.1102C130.623 33.5976 131.064 33.9571 131.629 34.1885C132.2 34.4199 132.864 34.5208 133.622 34.4912C134.03 34.4764 134.377 34.4346 134.663 34.3657C134.948 34.3016 135.169 34.2451 135.327 34.1958L134.833 31.8547C134.776 31.8652 134.703 31.8794 134.612 31.8975L134.493 31.9211C134.345 31.9458 134.198 31.958 134.05 31.958C133.838 31.958 133.652 31.9261 133.489 31.8621C133.332 31.798 133.209 31.6873 133.12 31.5297Z" fill="#333333"/>
<path d="M132.987 25.3555V22.9922H129.843V25.3555H132.987Z" fill="#333333"/>
<path fill-rule="evenodd" clip-rule="evenodd" d="M120.751 46.1528V43.7894H118.618V41.0716H115.474V43.7894H113.925V46.1528H115.474H118.618H120.751Z" fill="#333333"/>
<path d="M118.751 52.3268C118.663 52.1644 118.618 51.9379 118.618 51.6474V46.1528H115.475V52.061C115.47 52.8044 115.625 53.4199 115.939 53.9073C116.254 54.3948 116.695 54.7542 117.261 54.9856C117.831 55.217 118.495 55.318 119.253 55.2884C119.661 55.2736 120.008 55.2318 120.294 55.1628C120.579 55.0988 120.8 55.0422 120.958 54.9929L120.463 52.6519C120.385 52.6666 120.272 52.6888 120.124 52.7184C119.976 52.7429 119.829 52.7553 119.681 52.7553C119.47 52.7553 119.283 52.7232 119.12 52.6592C118.963 52.5953 118.84 52.4844 118.751 52.3268Z" fill="#333333"/>
<path fill-rule="evenodd" clip-rule="evenodd" d="M104.951 50.2664H103.098V48.3166H104.954C104.952 48.3508 104.951 48.3853 104.951 48.42V50.2664Z" fill="#333333"/>
<path d="M104.456 54.6459C105.298 55.1186 106.301 55.3549 107.467 55.3549C108.402 55.3549 109.226 55.2121 109.94 54.9265C110.658 54.636 111.243 54.2322 111.696 53.7153C112.154 53.1935 112.456 52.5829 112.604 51.8837L109.696 51.6917C109.588 51.9773 109.43 52.2185 109.224 52.4154C109.017 52.6125 108.769 52.7601 108.478 52.8587C108.188 52.9571 107.868 53.0063 107.519 53.0063C106.993 53.0063 106.537 52.8956 106.154 52.674C105.77 52.4525 105.472 52.1373 105.261 51.7287C105.054 51.3199 104.951 50.835 104.951 50.2737V50.2664H103.098V48.3166H104.954C104.973 47.9093 105.077 47.5376 105.268 47.2014C105.475 46.8321 105.76 46.5393 106.124 46.3225C106.493 46.101 106.916 45.9902 107.393 45.9902C107.851 45.9902 108.252 46.0911 108.596 46.2931C108.946 46.49 109.219 46.7632 109.416 47.1128C109.612 47.4624 109.711 47.8637 109.711 48.3166H104.954C104.952 48.3508 104.951 48.3852 104.951 48.42V50.2664H112.67V49.4023C112.67 48.4372 112.535 47.5953 112.264 46.8765C111.994 46.1528 111.615 45.5521 111.128 45.0745C110.646 44.5968 110.08 44.2399 109.43 44.0036C108.786 43.7623 108.09 43.6416 107.342 43.6416C106.23 43.6416 105.261 43.8878 104.434 44.3802C103.612 44.8726 102.975 45.5594 102.523 46.4407C102.07 47.3221 101.844 48.3462 101.844 49.513C101.844 50.7095 102.07 51.7459 102.523 52.6223C102.975 53.4938 103.62 54.1683 104.456 54.6459Z" fill="#333333"/>
</g>
<defs>
<clipPath id="clip0_2004_1299">
<rect width="136" height="57" fill="white"/>
</clipPath>
</defs>
</svg>
