<svg width="138" height="58" viewBox="0 0 138 58" fill="none" xmlns="http://www.w3.org/2000/svg">
<g clip-path="url(#clip0_28_1091)">
<path d="M73.4323 22.9775C73.4644 19.1178 69.9758 15.6628 66.3129 15.8238C63.0352 15.9619 59.7437 15.8928 56.4613 15.8238C54.9256 15.787 53.9813 16.201 53.2524 17.7146C52.0192 20.2035 49.4244 20.2127 48.1088 17.7744C47.2882 16.2563 46.2201 15.8192 44.611 15.8238C32.4627 15.8652 20.3144 15.8238 8.17518 15.8561C3.5909 15.8514 0.757822 18.7497 0.748653 23.3225C0.7349 32.1417 0.867845 40.956 0.684474 49.7705C0.611125 53.5107 3.49005 57.6832 8.42731 57.536C14.3044 57.3659 20.1906 57.4993 26.0722 57.4993C32.2609 57.4993 38.4497 57.4762 44.6339 57.4993C46.1146 57.4993 47.1507 57.2325 47.9254 55.6821C49.2549 53.0138 51.9733 53.0919 53.3624 55.7649C53.5986 56.3257 54.007 56.7962 54.528 57.1082C55.0491 57.4201 55.6556 57.5571 56.2597 57.4993C59.542 57.4486 62.8289 57.4993 66.1112 57.4993C70.4205 57.4624 73.3636 54.6378 73.3911 50.3364C73.4506 41.2091 73.3545 32.0817 73.4323 22.9775Z" fill="#7866FF"/>
<path d="M37.7804 38.0716C37.5513 38.0716 37.322 38.0716 37.0929 38.0716C35.6901 38.1359 34.2964 38.1175 32.9669 38.5546C32.22 38.8301 31.5136 39.2061 30.8674 39.6725C30.1815 40.1463 29.5318 40.6706 28.9237 41.2413C27.8813 42.1393 26.7802 42.9662 25.6275 43.7162C24.8024 44.2959 23.8809 44.5122 23.2392 43.5139C22.5974 42.5156 23.0603 41.7656 23.8763 41.1353C24.2706 41.1353 25.5497 39.8933 25.8477 39.608C26.4114 39.0652 26.957 38.5454 27.5759 38.0485C24.3302 38.2969 21.0295 38.1635 17.7747 38.1405C16.7936 38.1405 15.6522 38.3062 15.0929 37.2665C14.4923 36.1439 12.3423 33.241 14.089 32.1462C15.0058 31.5757 16.1335 32.3348 16.4361 33.2319C16.9357 34.7316 17.9856 35.072 19.4617 35.0076C22.0563 34.8742 24.6557 35.0491 27.255 34.8604C26.957 34.1566 26.4114 33.9817 25.8155 33.6228C25.1305 33.1543 24.4708 32.649 23.8397 32.1093C22.987 31.4652 22.6706 30.6003 23.2666 29.7171C23.8626 28.8338 24.7657 28.8569 25.6413 29.5422C27.443 30.95 29.3087 32.3026 31.0783 33.7333C31.6506 34.2181 32.3106 34.5884 33.022 34.8236C33.3859 34.9135 33.7572 34.9688 34.1313 34.9893C34.5348 35.026 34.9382 35.0582 35.3416 35.0812C36.0247 35.118 36.7169 35.0812 37.3907 35.0812C38.0647 35.0812 38.7661 35.0812 39.2658 35.5412C39.439 35.7221 39.5679 35.941 39.6419 36.1806C39.7158 36.4202 39.733 36.6739 39.6921 36.9214C39.6483 37.1734 39.5278 37.4055 39.3473 37.5859C39.1667 37.7662 38.9348 37.8861 38.6836 37.9289C38.3925 38.0267 38.0873 38.0749 37.7804 38.0716Z" fill="#FEFEFE"/>
<path d="M66.9273 29.9747C66.9273 28.8645 66.0304 27.9644 64.924 27.9644C63.8177 27.9644 62.9207 28.8645 62.9207 29.9747V43.0537C62.9207 44.164 63.8177 45.0641 64.924 45.0641C66.0304 45.0641 66.9273 44.164 66.9273 43.0537V29.9747Z" fill="#FEFEFE"/>
<path d="M60.7661 29.4962C60.7661 28.6503 60.0836 27.9644 59.2418 27.9644C58.4 27.9644 57.7175 28.6503 57.7175 29.4962V34.4739C57.7175 35.32 58.4 36.0059 59.2418 36.0059C60.0836 36.0059 60.7661 35.32 60.7661 34.4739V29.4962Z" fill="#FEFEFE"/>
<path d="M50.5523 24.3574C51.5241 24.3574 52.0972 25.1165 52.1063 26.4507C52.1155 27.7848 51.515 28.6681 50.6531 28.6543C49.7912 28.6404 49.1037 27.771 49.0945 26.515C49.0807 25.1303 49.585 24.3896 50.5523 24.3574Z" fill="#FEFEFE"/>
<path d="M52.1063 36.5945C52.1337 37.9747 51.6478 38.7429 50.6713 38.8119C49.6949 38.881 49.1173 38.0575 49.0944 36.7556C49.0715 35.4536 49.6262 34.5796 50.5156 34.5336C51.4049 34.4875 52.0833 35.2973 52.1063 36.5945Z" fill="#FEFEFE"/>
<path d="M50.5981 48.9607C49.7041 48.9607 49.0945 48.082 49.0945 46.8031C49.0945 45.5242 49.7041 44.6363 50.5981 44.6501C51.492 44.6639 52.0971 45.5195 52.1063 46.8169C52.1155 48.1142 51.515 48.9607 50.5981 48.9607Z" fill="#FEFEFE"/>
<path d="M67.3629 12.9024H63.0306C61.0458 12.9024 59.0607 12.9024 57.0711 12.9024C53.4724 12.9024 53.0323 13.1002 50.7082 15.5201C49.5438 14.7334 48.4848 13.6799 47.215 13.2475C45.9451 12.815 44.5102 12.9208 43.1441 12.9116C38.0327 12.8794 32.9212 12.9116 27.8051 12.9116H25.6046L25.4946 12.4884C25.9073 12.2722 26.3061 12.0283 26.7324 11.8489C29.5517 10.6988 32.3894 9.59011 35.1996 8.40779C36.4327 7.88795 37.4092 7.91095 38.5462 8.82644C41.1317 10.9012 43.355 9.92594 43.763 6.59982C43.7999 6.0665 43.9958 5.55665 44.3252 5.13656C44.6548 4.71649 45.1025 4.40561 45.6104 4.2444C48.7232 3.00227 51.8175 1.72796 54.9486 0.564042C58.8591 -0.912699 62.531 0.564042 64.3005 4.364C65.387 6.71483 66.2397 9.17147 67.1795 11.5913C67.2788 12.0221 67.3402 12.4608 67.3629 12.9024Z" fill="#7866FF"/>
<path d="M92.0264 34.9387V23.3958H95.1191V25.4099H95.2389C95.4486 24.6935 95.8005 24.1524 96.2948 23.7866C96.789 23.4159 97.3581 23.2305 98.0022 23.2305C98.1619 23.2305 98.3342 23.2406 98.5189 23.2606C98.7035 23.2806 98.8658 23.3082 99.0056 23.3433V26.1839C98.8559 26.1388 98.6486 26.0987 98.3841 26.0636C98.1194 26.0286 97.8773 26.011 97.6577 26.011C97.1884 26.011 96.7691 26.1138 96.3996 26.3191C96.0352 26.5195 95.7457 26.8001 95.5309 27.1608C95.3213 27.5215 95.2165 27.9373 95.2165 28.4084V34.9387H92.0264Z" fill="#FEFEFE"/>
<path d="M100.655 34.9383V23.3953H103.845V34.9383H100.655ZM102.258 21.9075C101.783 21.9075 101.376 21.7496 101.037 21.434C100.702 21.1133 100.535 20.7301 100.535 20.2842C100.535 19.8434 100.702 19.4651 101.037 19.1494C101.376 18.8288 101.783 18.6685 102.258 18.6685C102.732 18.6685 103.136 18.8288 103.471 19.1494C103.81 19.4651 103.98 19.8434 103.98 20.2842C103.98 20.7301 103.81 21.1133 103.471 21.434C103.136 21.7496 102.732 21.9075 102.258 21.9075Z" fill="#FEFEFE"/>
<path d="M117.124 23.3955L113.103 34.9385H109.508L105.487 23.3955H108.857L111.245 31.6544H111.365L113.747 23.3955H117.124Z" fill="#FEFEFE"/>
<path d="M78.4329 56.1004V40.71H84.5734C85.7016 40.71 86.6428 40.8777 87.3966 41.2135C88.1504 41.549 88.717 42.015 89.0964 42.6111C89.4759 43.2023 89.6656 43.8837 89.6656 44.6552C89.6656 45.2565 89.5458 45.785 89.3062 46.2408C89.0665 46.6918 88.7371 47.0625 88.3176 47.353C87.9033 47.6386 87.4291 47.8416 86.8949 47.9618V48.1121C87.479 48.1371 88.0256 48.3024 88.5349 48.608C89.049 48.9136 89.4659 49.342 89.7855 49.8932C90.1049 50.4392 90.2646 51.0904 90.2646 51.8471C90.2646 52.6636 90.0624 53.3926 89.6581 54.0338C89.2587 54.6701 88.6671 55.1736 87.8834 55.5443C87.0995 55.9151 86.1335 56.1004 84.9853 56.1004H78.4329ZM81.6753 53.4401H84.3188C85.2225 53.4401 85.8814 53.2674 86.2957 52.9216C86.7101 52.571 86.9173 52.105 86.9173 51.5239C86.9173 51.098 86.8149 50.7223 86.6102 50.3967C86.4056 50.071 86.1136 49.8154 85.7341 49.6301C85.3596 49.4448 84.9128 49.3521 84.3936 49.3521H81.6753V53.4401ZM81.6753 47.1502H84.0791C84.5234 47.1502 84.9179 47.0726 85.2624 46.9172C85.6119 46.7569 85.8864 46.5315 86.0861 46.2408C86.2908 45.9503 86.3931 45.6021 86.3931 45.1963C86.3931 44.6402 86.196 44.1918 85.8015 43.8511C85.4121 43.5104 84.8579 43.3401 84.1391 43.3401H81.6753V47.1502Z" fill="#FEFEFE"/>
<path d="M92.3147 56.1003V44.5574H95.5048V56.1003H92.3147ZM93.9171 43.0695C93.4428 43.0695 93.0359 42.9116 92.6965 42.5961C92.3621 42.2754 92.1948 41.8921 92.1948 41.4463C92.1948 41.0053 92.3621 40.6271 92.6965 40.3114C93.0359 39.9908 93.4428 39.8306 93.9171 39.8306C94.3915 39.8306 94.7958 39.9908 95.1303 40.3114C95.4698 40.6271 95.6395 41.0053 95.6395 41.4463C95.6395 41.8921 95.4698 42.2754 95.1303 42.5961C94.7958 42.9116 94.3915 43.0695 93.9171 43.0695Z" fill="#FEFEFE"/>
<path d="M101.25 40.71V56.1004H98.0603V40.71H101.25Z" fill="#FEFEFE"/>
<path fill-rule="evenodd" clip-rule="evenodd" d="M78.4329 19.5479V34.9384H81.6753V29.9485H84.4012C85.5793 29.9485 86.5828 29.7306 87.4116 29.2948C88.2453 28.8589 88.8818 28.2502 89.3212 27.4686C89.7605 26.6871 89.9802 25.7853 89.9802 24.7633C89.9802 23.7413 89.7629 22.8395 89.3286 22.0579C88.8993 21.2713 88.2753 20.6576 87.4564 20.2166C86.6377 19.7709 85.6467 19.5479 84.4835 19.5479H78.4329ZM81.6753 27.3408H80.5445V29.9485H81.6753V27.3408ZM81.6753 27.3408V22.2081H83.862C84.4911 22.2081 85.0103 22.3158 85.4196 22.5313C85.829 22.7417 86.1335 23.0399 86.3331 23.4256C86.5378 23.8063 86.6403 24.2522 86.6403 24.7633C86.6403 25.2693 86.5378 25.7177 86.3331 26.1085C86.1335 26.4942 85.829 26.7973 85.4196 27.0177C85.0152 27.2331 84.501 27.3408 83.877 27.3408H81.6753Z" fill="#FEFEFE"/>
<path d="M80.5444 27.3408V29.9485H81.6752V27.3408H80.5444Z" fill="#FEFEFE"/>
<path fill-rule="evenodd" clip-rule="evenodd" d="M120.573 34.4424C121.426 34.9233 122.445 35.1638 123.628 35.1638C124.577 35.1638 125.413 35.0186 126.137 34.7279C126.865 34.4324 127.459 34.0215 127.919 33.4955C128.383 32.9644 128.69 32.3432 128.84 31.6318L125.889 31.4364C125.78 31.7269 125.62 31.9725 125.41 32.1728C125.201 32.3732 124.948 32.5236 124.654 32.6237C124.359 32.724 124.035 32.7741 123.68 32.7741C123.146 32.7741 122.684 32.6613 122.295 32.4359C121.906 32.2104 121.603 31.8897 121.389 31.4739C121.179 31.0581 121.074 30.5647 121.074 29.9936V29.986H128.907V29.1067C128.907 28.1249 128.77 27.2681 128.495 26.5366C128.221 25.8002 127.836 25.1889 127.342 24.703C126.853 24.217 126.279 23.8538 125.62 23.6134C124.966 23.3679 124.259 23.2451 123.501 23.2451C122.372 23.2451 121.389 23.4956 120.55 23.9966C119.716 24.4976 119.07 25.1965 118.611 26.0933C118.151 26.9901 117.922 28.0322 117.922 29.2195C117.922 30.437 118.151 31.4915 118.611 32.3833C119.07 33.27 119.724 33.9563 120.573 34.4424ZM121.077 28.0021H125.904C125.904 27.5411 125.805 27.1329 125.605 26.7772C125.405 26.4214 125.128 26.1433 124.774 25.9429C124.424 25.7376 124.017 25.6349 123.553 25.6349C123.069 25.6349 122.639 25.7475 122.265 25.9731C121.895 26.1935 121.606 26.4916 121.396 26.8674C121.203 27.2093 121.097 27.5875 121.077 28.0021ZM121.074 28.1073C121.075 28.072 121.076 28.0369 121.077 28.0021H119.195V29.986H121.074V28.1073Z" fill="#FEFEFE"/>
<path d="M119.195 28.0024V29.9863H121.074V28.1077C121.075 28.0723 121.076 28.0372 121.077 28.0024H119.195Z" fill="#FEFEFE"/>
<path fill-rule="evenodd" clip-rule="evenodd" d="M137.108 23.3957V25.8005H134.943V23.3957H137.108ZM131.753 23.3957V25.8005H130.18V23.3957H131.753ZM131.753 23.3957H134.943V20.6304H131.753V23.3957Z" fill="#FEFEFE"/>
<path d="M135.078 32.0828C134.988 31.9175 134.943 31.687 134.943 31.3915V25.8003H131.753V31.8123C131.748 32.5688 131.905 33.195 132.225 33.6911C132.544 34.187 132.991 34.5528 133.565 34.7882C134.144 35.0237 134.818 35.1264 135.587 35.0963C136.001 35.0813 136.353 35.0387 136.643 34.9686C136.933 34.9034 137.157 34.8458 137.317 34.7957L136.815 32.4135C136.758 32.4242 136.684 32.4387 136.591 32.457L136.471 32.4811C136.321 32.5062 136.171 32.5186 136.021 32.5186C135.807 32.5186 135.617 32.4862 135.452 32.421C135.292 32.3558 135.168 32.2431 135.078 32.0828Z" fill="#FEFEFE"/>
<path d="M134.943 25.8003V23.3955H131.753V25.8003H134.943Z" fill="#FEFEFE"/>
<path fill-rule="evenodd" clip-rule="evenodd" d="M122.527 46.9623V44.5575H120.363V41.792H117.173V44.5575H115.6V46.9623H117.173H120.363H122.527Z" fill="#FEFEFE"/>
<path d="M120.498 53.2448C120.408 53.0795 120.363 52.849 120.363 52.5535V46.9624H117.173V52.9742C117.168 53.7307 117.325 54.357 117.645 54.853C117.964 55.3491 118.411 55.7147 118.985 55.9502C119.564 56.1856 120.238 56.2884 121.007 56.2583C121.421 56.2432 121.773 56.2007 122.063 56.1305C122.352 56.0654 122.577 56.0078 122.737 55.9576L122.235 53.5755C122.155 53.5906 122.04 53.6131 121.891 53.6432C121.741 53.6682 121.591 53.6807 121.441 53.6807C121.226 53.6807 121.037 53.6481 120.872 53.583C120.712 53.5179 120.588 53.4051 120.498 53.2448Z" fill="#FEFEFE"/>
<path fill-rule="evenodd" clip-rule="evenodd" d="M106.494 51.1481H104.615V49.1641H106.497C106.495 49.1989 106.494 49.2339 106.494 49.2693V51.1481Z" fill="#FEFEFE"/>
<path d="M105.992 55.6045C106.846 56.0855 107.864 56.326 109.048 56.326C109.996 56.326 110.832 56.1807 111.556 55.8901C112.285 55.5945 112.879 55.1836 113.339 54.6576C113.803 54.1266 114.11 53.5054 114.26 52.7939L111.309 52.5985C111.199 52.8892 111.04 53.1346 110.83 53.3349C110.62 53.5355 110.368 53.6857 110.074 53.786C109.779 53.8861 109.454 53.9362 109.1 53.9362C108.566 53.9362 108.104 53.8235 107.715 53.598C107.325 53.3726 107.023 53.052 106.809 52.6362C106.599 52.2202 106.494 51.7268 106.494 51.1557V51.1482H104.614V49.1642H106.497C106.516 48.7498 106.623 48.3715 106.816 48.0295C107.026 47.6537 107.315 47.3557 107.685 47.1352C108.059 46.9098 108.488 46.797 108.973 46.797C109.437 46.797 109.844 46.8997 110.193 47.1052C110.548 47.3056 110.825 47.5836 111.025 47.9393C111.224 48.295 111.324 48.7034 111.324 49.1642H106.497C106.495 49.199 106.494 49.2341 106.494 49.2694V51.1482H114.327V50.269C114.327 49.287 114.19 48.4302 113.915 47.6989C113.641 46.9624 113.256 46.3512 112.762 45.8652C112.273 45.3791 111.698 45.0159 111.04 44.7755C110.386 44.53 109.679 44.4072 108.92 44.4072C107.792 44.4072 106.809 44.6577 105.97 45.1587C105.136 45.6597 104.49 46.3587 104.03 47.2554C103.571 48.1522 103.341 49.1943 103.341 50.3816C103.341 51.5991 103.571 52.6537 104.03 53.5454C104.49 54.4323 105.144 55.1186 105.992 55.6045Z" fill="#FEFEFE"/>
</g>
<defs>
<clipPath id="clip0_28_1091">
<rect width="138" height="58" fill="white"/>
</clipPath>
</defs>
</svg>
