<svg width="48" height="48" viewBox="0 0 48 48" fill="none" xmlns="http://www.w3.org/2000/svg">
<mask id="mask0_4_184" style="mask-type:alpha" maskUnits="userSpaceOnUse" x="0" y="0" width="47" height="47">
<path d="M46.5188 0.420044H0.438751V46.5H46.5188V0.420044Z" fill="#D9D9D9"/>
</mask>
<g mask="url(#mask0_4_184)">
<path d="M16.7587 42.6601V39.7801L20.5987 36.9001V26.3401L4.27875 31.1401V27.3001L20.5987 17.7V7.14001C20.5987 6.34 20.8786 5.66002 21.4387 5.10001C21.9988 4.54 22.6786 4.26001 23.4787 4.26001C24.2788 4.26001 24.9586 4.54 25.5187 5.10001C26.0788 5.66002 26.3587 6.34 26.3587 7.14001V17.7L42.6787 27.3001V31.1401L26.3587 26.3401V36.9001L30.1987 39.7801V42.6601L23.4787 40.7401L16.7587 42.6601Z" fill="#7866FF"/>
</g>
</svg>
