<svg width="48" height="48" viewBox="0 0 48 48" fill="none" xmlns="http://www.w3.org/2000/svg">
<g clip-path="url(#clip0_4_171)">
<mask id="mask0_4_171" style="mask-type:alpha" maskUnits="userSpaceOnUse" x="0" y="0" width="48" height="48">
<path d="M48 0H0V48H48V0Z" fill="#D9D9D9"/>
</mask>
<g mask="url(#mask0_4_171)">
<path d="M37.7 31.7968L7.45 23.3968C7.01666 23.2636 6.66666 23.0302 6.4 22.6968C6.13334 22.3636 6 21.9636 6 21.4968V13.7469C6 13.3135 6.175 12.9719 6.525 12.7219C6.875 12.4719 7.25 12.4135 7.65 12.5469L8.4 12.7969C8.6 12.8635 8.76666 12.9635 8.9 13.0969C9.03334 13.2302 9.13334 13.3969 9.2 13.5969L10.4 17.1969L20 19.8969V6.24688C20 5.6802 20.225 5.21354 20.675 4.84688C21.125 4.4802 21.6334 4.3802 22.2 4.54688L23.05 4.74688C23.35 4.81354 23.6084 4.9552 23.825 5.17188C24.0416 5.38854 24.2 5.64688 24.3 5.94688L29.5 22.4968L39.5 25.2968C40.2666 25.4968 40.875 25.9052 41.325 26.5218C41.775 27.1386 42 27.8302 42 28.5968C42 29.6968 41.55 30.5802 40.65 31.2468C39.75 31.9136 38.7666 32.0968 37.7 31.7968ZM8 41.9968C7.43334 41.9968 6.95834 41.8052 6.575 41.4218C6.19166 41.0386 6 40.5636 6 39.9968C6 39.4302 6.19166 38.9552 6.575 38.5718C6.95834 38.1886 7.43334 37.9968 8 37.9968H40C40.5666 37.9968 41.0416 38.1886 41.425 38.5718C41.8084 38.9552 42 39.4302 42 39.9968C42 40.5636 41.8084 41.0386 41.425 41.4218C41.0416 41.8052 40.5666 41.9968 40 41.9968H8Z" fill="#7866FF"/>
</g>
</g>
<defs>
<clipPath id="clip0_4_171">
<rect width="48" height="48" fill="white"/>
</clipPath>
</defs>
</svg>
