<svg width="58" height="58" viewBox="0 0 58 58" fill="none" xmlns="http://www.w3.org/2000/svg">
<mask id="mask0_4_159" style="mask-type:alpha" maskUnits="userSpaceOnUse" x="0" y="0" width="58" height="58">
<path d="M58 0H0V58H58V0Z" fill="#D9D9D9"/>
</mask>
<g mask="url(#mask0_4_159)">
<path d="M26.825 36.2461H31.175C31.5375 36.2461 31.8497 36.095 32.1115 35.793C32.3732 35.4909 32.4638 35.1586 32.3833 34.7961L31.2354 28.4523C32.0409 28.0497 32.6753 27.4656 33.1385 26.7003C33.6018 25.9351 33.8333 25.0893 33.8333 24.1628C33.8333 22.8337 33.3601 21.6958 32.4135 20.7493C31.4669 19.8028 30.3292 19.3295 29 19.3295C27.6708 19.3295 26.5331 19.8028 25.5864 20.7493C24.6398 21.6958 24.1667 22.8337 24.1667 24.1628C24.1667 25.0893 24.3982 25.9351 24.8614 26.7003C25.3247 27.4656 25.9591 28.0497 26.7646 28.4523L25.6167 34.7961C25.5362 35.1586 25.6268 35.4909 25.8885 35.793C26.1503 36.095 26.4625 36.2461 26.825 36.2461ZM29 52.9211C28.718 52.9211 28.4562 52.901 28.2146 52.8607C27.9729 52.8206 27.7312 52.7601 27.4896 52.6794C22.0521 50.8669 17.7222 47.5138 14.5 42.62C11.2778 37.7263 9.66666 32.4601 9.66666 26.8211V15.4024C9.66666 14.3955 9.95866 13.4892 10.5427 12.6837C11.1267 11.8781 11.8819 11.2941 12.8083 10.9316L27.3083 5.4941C27.8721 5.29269 28.4362 5.19202 29 5.19202C29.5638 5.19202 30.1278 5.29269 30.6917 5.4941L45.1917 10.9316C46.118 11.2941 46.8732 11.8781 47.4573 12.6837C48.0414 13.4892 48.3333 14.3955 48.3333 15.4024V26.8211C48.3333 32.4601 46.7221 37.7263 43.5 42.62C40.2778 47.5138 35.9479 50.8669 30.5104 52.6794C30.2687 52.7601 30.0271 52.8206 29.7854 52.8607C29.5437 52.901 29.282 52.9211 29 52.9211Z" fill="#7866FF"/>
</g>
</svg>
