<svg width="43" height="43" viewBox="0 0 43 43" fill="none" xmlns="http://www.w3.org/2000/svg">
<circle cx="21.5" cy="21.5" r="21.5" fill="#29A71A"/>
<path d="M28.4008 15.1475C26.8903 13.634 24.8843 12.7058 22.7447 12.5304C20.6051 12.3549 18.4728 12.9438 16.7323 14.1907C14.9918 15.4377 13.7577 17.2606 13.2527 19.3307C12.7476 21.4008 13.0049 23.5818 13.978 25.4804L13.0228 30.0813C13.0129 30.1271 13.0126 30.1744 13.0219 30.2203C13.0313 30.2662 13.0501 30.3097 13.0772 30.3481C13.1169 30.4063 13.1735 30.4511 13.2396 30.4766C13.3056 30.502 13.3779 30.5069 13.4468 30.4905L17.992 29.4217C19.9003 30.3627 22.0833 30.6015 24.1524 30.0956C26.2215 29.5897 28.0426 28.372 29.2917 26.6591C30.5407 24.9462 31.1367 22.8492 30.9736 20.7413C30.8105 18.6333 29.8988 16.6512 28.4008 15.1475ZM26.9836 26.3691C25.9385 27.4031 24.5927 28.0856 23.1358 28.3205C21.679 28.5554 20.1846 28.3309 18.8632 27.6785L18.2296 27.3675L15.4431 28.0222L15.4513 27.9879L16.0288 25.2054L15.7186 24.5981C15.0434 23.2826 14.8052 21.7889 15.0382 20.3309C15.2711 18.8728 15.9632 17.5254 17.0153 16.4815C18.3374 15.1703 20.1302 14.4338 21.9995 14.4338C23.8688 14.4338 25.6616 15.1703 26.9836 16.4815C26.9949 16.4943 27.007 16.5063 27.0199 16.5175C28.3255 17.832 29.0544 19.6053 29.0476 21.4507C29.0408 23.2962 28.2989 25.0641 26.9836 26.3691Z" fill="white"/>
<path d="M26.7362 24.3281C26.3947 24.8617 25.8552 25.5147 25.1771 25.6768C23.9893 25.9616 22.1662 25.6866 19.8977 23.5883L19.8696 23.5637C17.875 21.7289 17.357 20.2018 17.4823 18.9906C17.5516 18.3032 18.1291 17.6812 18.6158 17.2753C18.6927 17.2101 18.784 17.1637 18.8822 17.1398C18.9805 17.1159 19.083 17.1151 19.1816 17.1376C19.2802 17.16 19.3721 17.205 19.4501 17.269C19.528 17.333 19.5898 17.4142 19.6304 17.5061L20.3646 19.1428C20.4123 19.2489 20.43 19.366 20.4157 19.4813C20.4015 19.5966 20.3559 19.706 20.2838 19.7975L19.9125 20.2755C19.8329 20.3741 19.7848 20.4942 19.7745 20.6202C19.7642 20.7462 19.7922 20.8724 19.8548 20.9825C20.0627 21.3443 20.5609 21.8762 21.1136 22.3689C21.734 22.9254 22.4219 23.4344 22.8575 23.6079C22.974 23.6551 23.1022 23.6667 23.2254 23.641C23.3486 23.6153 23.4612 23.5536 23.5488 23.4639L23.9794 23.0334C24.0625 22.9521 24.1658 22.8941 24.2788 22.8654C24.3918 22.8366 24.5105 22.8381 24.6228 22.8697L26.3667 23.3607C26.4629 23.39 26.551 23.4407 26.6245 23.509C26.6979 23.5773 26.7546 23.6613 26.7902 23.7546C26.8259 23.848 26.8396 23.9482 26.8302 24.0476C26.8208 24.1469 26.7887 24.2429 26.7362 24.3281Z" fill="white"/>
</svg>
